<?xml version="1.0" encoding="utf-8"?>
<!-- Generator: Adobe Illustrator 22.0.0, SVG Export Plug-In . SVG Version: 6.00 Build 0)  -->
<svg version="1.1" id="Layer_1" xmlns="http://www.w3.org/2000/svg" xmlns:xlink="http://www.w3.org/1999/xlink" x="0px" y="0px"
	 width="140px" height="100px" viewBox="0 0 140 100" style="enable-background:new 0 0 140 100;" xml:space="preserve">
<style type="text/css">
	.st0{fill:#F68C28;}
	.st1{fill:#231F20;}
</style>
<g>
	<path class="st0" d="M44.4,23.3C50,35.4,60.1,46.2,60.1,46.2c11.8,12.1,11.8,23.7,11.8,23.7c-3.8-8.2-9.4-13.7-9.4-13.7
		C48.3,42.4,44.4,23.3,44.4,23.3"/>
	<path class="st1" d="M23.2,75.3c-1.5,0.8-2.8,2-3.6,3.4c-0.8,1.4-1.3,3.1-1.3,5c0,1.4,0.4,2.9,1,4.3c0.6,1.5,1.5,2.7,2.9,3.8
		c1.3,1,3,1.5,5.1,1.5H32V89h-1.1c-2,0-3.7-0.4-4.9-1.2c-1.2-0.8-1.9-2.2-1.9-4.2c0-1.7,0.7-3,2.1-3.8c1.3-0.8,2.9-1.1,4.8-1.1h1
		v-4.5h-3.3C26.6,74.1,24.8,74.5,23.2,75.3"/>
	<polygon class="st1" points="39.8,74.1 34.4,74.1 34.4,93.3 39.8,93.3 39.8,85.8 46.9,85.8 46.9,81.5 39.8,81.5 	"/>
	<path class="st1" d="M80,74.1H63.5v19.2h5.3V78.4h3.1v14.9h5.3V78.4h0.3c0.7,0,1.3,0,1.6,0c0.3,0,0.6,0.1,0.8,0.4
		c0.2,0.2,0.3,0.5,0.4,0.8c0,0.3,0,0.9,0,1.6v12.1h5.4V78.7C85.7,75.6,83.8,74.1,80,74.1"/>
	<rect x="87.9" y="74.1" class="st1" width="5.4" height="4.3"/>
	<rect x="87.9" y="81.5" class="st1" width="5.4" height="11.8"/>
	<path class="st1" d="M107.5,88.7h-4c-0.7,0-1.2-0.1-1.5-0.2c-0.4-0.1-0.7-0.4-0.9-0.8c-0.1-0.3-0.2-0.7-0.2-1.3V74.1h-5.3v12.5
		c0,1.2,0.1,2.2,0.2,3s0.3,1.4,0.7,2c0.3,0.5,0.9,1,1.6,1.3c0.8,0.3,1.8,0.5,3.2,0.5h11.6V74.1h-5.3L107.5,88.7L107.5,88.7z"/>
	<path class="st1" d="M131.5,74.1H115v19.2h5.3V78.4h3.1v14.9h5.3V78.4h0.3c0.7,0,1.3,0,1.6,0c0.4,0,0.6,0.1,0.8,0.4
		c0.2,0.2,0.3,0.5,0.4,0.8c0,0.3,0,0.9,0,1.6v12.1h5.4V78.7C137.2,75.6,135.3,74.1,131.5,74.1"/>
	<polygon class="st1" points="48,74.1 48,78.4 48,81.5 48,90.5 48,93.3 61.3,93.3 61.3,88.9 53.4,88.9 53.4,85.8 61.3,85.8 
		61.3,81.5 53.4,81.5 53.4,78.4 61.3,78.4 61.3,74.1 53.4,74.1 	"/>
</g>
<path class="st0" d="M18.8,40.8c0,0-13,12.6-15.4,24.4c0,0-4.7,17.5,11.3,32.2c0,0-6.4-10.4-4.2-22.1c0,0,1.1-9.1,14.1-22
	c0,0,14.3-14.2,17.8-34.9C42.8,17,40.1,14,38,2.6C38,2.6,34.4,22.9,18.8,40.8"/>
</svg>
